<?xml version="1.0" encoding="UTF-8" standalone="no"?><svg xmlns="http://www.w3.org/2000/svg" xmlns:xlink="http://www.w3.org/1999/xlink" contentScriptType="application/ecmascript" contentStyleType="text/css" height="289px" preserveAspectRatio="none" style="width:348px;height:289px;" version="1.1" viewBox="0 0 348 289" width="348px" zoomAndPan="magnify"><defs><filter height="300%" id="f2ysm3j" width="300%" x="-1" y="-1"><feGaussianBlur result="blurOut" stdDeviation="2.0"/><feColorMatrix in="blurOut" result="blurOut2" type="matrix" values="0 0 0 0 0 0 0 0 0 0 0 0 0 0 0 0 0 0 .4 0"/><feOffset dx="4.0" dy="4.0" in="blurOut2" result="blurOut3"/><feBlend in="SourceGraphic" in2="blurOut3" mode="normal"/></filter></defs><g><rect fill="#FEFECE" filter="url(#f2ysm3j)" height="50" rx="12.5" ry="12.5" style="stroke: #A80036; stroke-width: 1.5;" width="63" x="216" y="8"/><line style="stroke: #A80036; stroke-width: 1.5;" x1="216" x2="279" y1="34.2969" y2="34.2969"/><text fill="#000000" font-family="sans-serif" font-size="14" lengthAdjust="spacingAndGlyphs" textLength="43" x="226" y="25.9951">Empty</text><rect fill="#FEFECE" filter="url(#f2ysm3j)" height="50" rx="12.5" ry="12.5" style="stroke: #A80036; stroke-width: 1.5;" width="91" x="6" y="135"/><line style="stroke: #A80036; stroke-width: 1.5;" x1="6" x2="97" y1="161.2969" y2="161.2969"/><text fill="#000000" font-family="sans-serif" font-size="14" lengthAdjust="spacingAndGlyphs" textLength="71" x="16" y="152.9951">Not Empty</text><ellipse cx="144.5" cy="272" fill="none" filter="url(#f2ysm3j)" rx="10" ry="10" style="stroke: #000000; stroke-width: 1.0;"/><ellipse cx="145" cy="272.5" fill="#000000" rx="6" ry="6" style="stroke: none; stroke-width: 1.0;"/><path d="M215.573,54.362 C182.426,75.502 130.401,108.681 93.8393,131.998 " fill="none" style="stroke: #A80036; stroke-width: 1.0;"/><polygon fill="#A80036" points="89.4596,134.791,99.1986,133.3242,93.6753,132.1025,94.897,126.5791,89.4596,134.791" style="stroke: #A80036; stroke-width: 1.0;"/><text fill="#000000" font-family="sans-serif" font-size="13" lengthAdjust="spacingAndGlyphs" textLength="56" x="162.5" y="101.0669">enqueue</text><path d="M264.225,58.188 C283.45,89.264 309.561,144.074 286.5,185 C258.547,234.6095 189.163,258.8685 158.947,267.3579 " fill="none" style="stroke: #A80036; stroke-width: 1.0;"/><polygon fill="#A80036" points="154.111,268.6748,163.8459,270.1685,158.9352,267.3605,161.7431,262.4498,154.111,268.6748" style="stroke: #A80036; stroke-width: 1.0;"/><text fill="#000000" font-family="sans-serif" font-size="13" lengthAdjust="spacingAndGlyphs" textLength="51" x="296.5" y="164.5669">isEmpty</text><path d="M43.6696,185.3275 C40.488,200.0356 39.4062,218.4901 48.5,232 C66.6507,258.965 107.004,267.2942 129.176,269.8612 " fill="none" style="stroke: #A80036; stroke-width: 1.0;"/><polygon fill="#A80036" points="134.396,270.3975,125.8509,265.5004,129.4221,269.8875,125.0349,273.4586,134.396,270.3975" style="stroke: #A80036; stroke-width: 1.0;"/><text fill="#000000" font-family="sans-serif" font-size="13" lengthAdjust="spacingAndGlyphs" textLength="51" x="49.5" y="228.0669">isEmpty</text><path d="M77.4643,185.1228 C86.6873,194.1596 96.9056,204.7311 105.5,215 C117.449,229.2769 129.423,247.1268 136.89,258.7838 " fill="none" style="stroke: #A80036; stroke-width: 1.0;"/><polygon fill="#A80036" points="139.614,263.0758,138.1677,253.3337,136.9344,258.8545,131.4136,257.6211,139.614,263.0758" style="stroke: #A80036; stroke-width: 1.0;"/><text fill="#000000" font-family="sans-serif" font-size="13" lengthAdjust="spacingAndGlyphs" textLength="21" x="119.5" y="228.0669">top</text><path d="M97.0156,154.239 C115.95,153.841 132,155.762 132,160 C132,163.841 118.818,165.778 102.2539,165.812 " fill="none" style="stroke: #A80036; stroke-width: 1.0;"/><polygon fill="#A80036" points="97.0156,165.761,105.9764,169.848,102.0154,165.8094,106.0539,161.8484,97.0156,165.761" style="stroke: #A80036; stroke-width: 1.0;"/><text fill="#000000" font-family="sans-serif" font-size="13" lengthAdjust="spacingAndGlyphs" textLength="56" x="138" y="164.5669">dequeue</text><path d="M97.2911,150.561 C143.482,145.743 200,148.89 200,160 C200,170.698 147.599,174.012 102.4727,169.943 " fill="none" style="stroke: #A80036; stroke-width: 1.0;"/><polygon fill="#A80036" points="97.2911,169.439,105.8621,174.2906,102.2677,169.9225,106.6357,166.3281,97.2911,169.439" style="stroke: #A80036; stroke-width: 1.0;"/><text fill="#000000" font-family="sans-serif" font-size="13" lengthAdjust="spacingAndGlyphs" textLength="56" x="206" y="164.5669">enqueue</text></g></svg>