<?xml version="1.0" encoding="UTF-8" standalone="no"?><svg xmlns="http://www.w3.org/2000/svg" xmlns:xlink="http://www.w3.org/1999/xlink" contentScriptType="application/ecmascript" contentStyleType="text/css" height="289px" preserveAspectRatio="none" style="width:344px;height:289px;" version="1.1" viewBox="0 0 344 289" width="344px" zoomAndPan="magnify"><defs><filter height="300%" id="f5irvb1" width="300%" x="-1" y="-1"><feGaussianBlur result="blurOut" stdDeviation="2.0"/><feColorMatrix in="blurOut" result="blurOut2" type="matrix" values="0 0 0 0 0 0 0 0 0 0 0 0 0 0 0 0 0 0 .4 0"/><feOffset dx="4.0" dy="4.0" in="blurOut2" result="blurOut3"/><feBlend in="SourceGraphic" in2="blurOut3" mode="normal"/></filter></defs><g><rect fill="#FEFECE" filter="url(#f5irvb1)" height="50" rx="12.5" ry="12.5" style="stroke: #A80036; stroke-width: 1.5;" width="63" x="212" y="8"/><line style="stroke: #A80036; stroke-width: 1.5;" x1="212" x2="275" y1="34.2969" y2="34.2969"/><text fill="#000000" font-family="sans-serif" font-size="14" lengthAdjust="spacingAndGlyphs" textLength="43" x="222" y="25.9951">Empty</text><rect fill="#FEFECE" filter="url(#f5irvb1)" height="50" rx="12.5" ry="12.5" style="stroke: #A80036; stroke-width: 1.5;" width="87" x="6" y="135"/><line style="stroke: #A80036; stroke-width: 1.5;" x1="6" x2="93" y1="161.2969" y2="161.2969"/><text fill="#000000" font-family="sans-serif" font-size="14" lengthAdjust="spacingAndGlyphs" textLength="67" x="16" y="152.9951">NotEmpty</text><ellipse cx="112.5" cy="272" fill="none" filter="url(#f5irvb1)" rx="10" ry="10" style="stroke: #000000; stroke-width: 1.0;"/><ellipse cx="113" cy="272.5" fill="#000000" rx="6" ry="6" style="stroke: none; stroke-width: 1.0;"/><path d="M211.899,54.362 C179.09,75.502 127.596,108.681 91.4073,131.998 " fill="none" style="stroke: #A80036; stroke-width: 1.0;"/><polygon fill="#A80036" points="87.0722,134.791,96.8042,133.2783,91.2752,132.0827,92.4708,126.5536,87.0722,134.791" style="stroke: #A80036; stroke-width: 1.0;"/><text fill="#000000" font-family="sans-serif" font-size="13" lengthAdjust="spacingAndGlyphs" textLength="56" x="159.5" y="101.0669">enqueue</text><path d="M260.535,58.2 C280.29,89.531 307.174,144.867 282.5,185 C247.641,241.7007 162.541,262.3999 127.725,268.6613 " fill="none" style="stroke: #A80036; stroke-width: 1.0;"/><polygon fill="#A80036" points="122.585,269.5455,132.1326,271.9628,127.5127,268.6983,130.7771,264.0784,122.585,269.5455" style="stroke: #A80036; stroke-width: 1.0;"/><text fill="#000000" font-family="sans-serif" font-size="13" lengthAdjust="spacingAndGlyphs" textLength="51" x="292.5" y="164.5669">isEmpty</text><path d="M93.0917,154.257 C111.898,153.787 128,155.701 128,160 C128,163.896 114.776,165.833 98.2987,165.812 " fill="none" style="stroke: #A80036; stroke-width: 1.0;"/><polygon fill="#A80036" points="93.0917,165.743,102.0376,169.8625,98.0913,165.8096,102.1442,161.8632,93.0917,165.743" style="stroke: #A80036; stroke-width: 1.0;"/><text fill="#000000" font-family="sans-serif" font-size="13" lengthAdjust="spacingAndGlyphs" textLength="56" x="134" y="164.5669">enqueue</text><path d="M93.1239,150.721 C138.944,145.676 196,148.769 196,160 C196,170.815 143.1,174.084 98.2678,169.807 " fill="none" style="stroke: #A80036; stroke-width: 1.0;"/><polygon fill="#A80036" points="93.1239,169.279,101.6683,174.1773,98.0978,169.7897,102.4854,166.2191,93.1239,169.279" style="stroke: #A80036; stroke-width: 1.0;"/><text fill="#000000" font-family="sans-serif" font-size="13" lengthAdjust="spacingAndGlyphs" textLength="56" x="202" y="164.5669">dequeue</text><path d="M42.3234,185.2119 C39.4632,199.6999 38.4899,217.9626 46.5,232 C57.4045,251.1096 81.7475,261.8019 97.626,266.9793 " fill="none" style="stroke: #A80036; stroke-width: 1.0;"/><polygon fill="#A80036" points="102.6548,268.5278,95.2307,262.0561,97.8763,267.0562,92.8762,269.7018,102.6548,268.5278" style="stroke: #A80036; stroke-width: 1.0;"/><text fill="#000000" font-family="sans-serif" font-size="13" lengthAdjust="spacingAndGlyphs" textLength="21" x="47.5" y="228.0669">top</text><path d="M63.3256,185.14 C76.1716,207.5694 94.8157,240.1227 105.0617,258.0125 " fill="none" style="stroke: #A80036; stroke-width: 1.0;"/><polygon fill="#A80036" points="107.717,262.6489,106.7155,252.8511,105.2322,258.31,99.7733,256.8267,107.717,262.6489" style="stroke: #A80036; stroke-width: 1.0;"/><text fill="#000000" font-family="sans-serif" font-size="13" lengthAdjust="spacingAndGlyphs" textLength="51" x="89.5" y="228.0669">isEmpty</text></g></svg>