<?xml version="1.0" encoding="UTF-8" standalone="no"?><svg xmlns="http://www.w3.org/2000/svg" xmlns:xlink="http://www.w3.org/1999/xlink" contentScriptType="application/ecmascript" contentStyleType="text/css" height="289px" preserveAspectRatio="none" style="width:437px;height:289px;" version="1.1" viewBox="0 0 437 289" width="437px" zoomAndPan="magnify"><defs><filter height="300%" id="f5w4qzo" width="300%" x="-1" y="-1"><feGaussianBlur result="blurOut" stdDeviation="2.0"/><feColorMatrix in="blurOut" result="blurOut2" type="matrix" values="0 0 0 0 0 0 0 0 0 0 0 0 0 0 0 0 0 0 .4 0"/><feOffset dx="4.0" dy="4.0" in="blurOut2" result="blurOut3"/><feBlend in="SourceGraphic" in2="blurOut3" mode="normal"/></filter></defs><g><rect fill="#FEFECE" filter="url(#f5w4qzo)" height="50" rx="12.5" ry="12.5" style="stroke: #A80036; stroke-width: 1.5;" width="63" x="308" y="8"/><line style="stroke: #A80036; stroke-width: 1.5;" x1="308" x2="371" y1="34.2969" y2="34.2969"/><text fill="#000000" font-family="sans-serif" font-size="14" lengthAdjust="spacingAndGlyphs" textLength="43" x="318" y="25.9951">Empty</text><rect fill="#FEFECE" filter="url(#f5w4qzo)" height="50" rx="12.5" ry="12.5" style="stroke: #A80036; stroke-width: 1.5;" width="91" x="6" y="135"/><line style="stroke: #A80036; stroke-width: 1.5;" x1="6" x2="97" y1="161.2969" y2="161.2969"/><text fill="#000000" font-family="sans-serif" font-size="14" lengthAdjust="spacingAndGlyphs" textLength="71" x="16" y="152.9951">Not Empty</text><ellipse cx="213.5" cy="272" fill="none" filter="url(#f5w4qzo)" rx="10" ry="10" style="stroke: #000000; stroke-width: 1.0;"/><ellipse cx="214" cy="272.5" fill="#000000" rx="6" ry="6" style="stroke: none; stroke-width: 1.0;"/><path d="M307.855,47.735 C258.182,69.294 161.46,111.274 102.0637,137.054 " fill="none" style="stroke: #A80036; stroke-width: 1.0;"/><polygon fill="#A80036" points="97.1447,139.189,106.9932,139.2743,101.7312,137.198,103.8075,131.9359,97.1447,139.189" style="stroke: #A80036; stroke-width: 1.0;"/><text fill="#000000" font-family="sans-serif" font-size="13" lengthAdjust="spacingAndGlyphs" textLength="56" x="214.5" y="101.0669">enqueue</text><path d="M333.446,58.209 C325.246,88.837 309.005,142.687 286.5,185 C274.27,207.9944 268.403,212.1852 251.5,232 C242.748,242.2601 231.95,253.1959 224.104,260.8683 " fill="none" style="stroke: #A80036; stroke-width: 1.0;"/><polygon fill="#A80036" points="220.511,264.3553,229.7549,260.9566,224.0986,260.8727,224.1826,255.2164,220.511,264.3553" style="stroke: #A80036; stroke-width: 1.0;"/><text fill="#000000" font-family="sans-serif" font-size="13" lengthAdjust="spacingAndGlyphs" textLength="56" x="309.5" y="164.5669">enqueue</text><path d="M355.384,58.192 C373.756,89.515 398.578,144.841 374.5,185 C341.863,239.4344 261.747,261.3338 228.421,268.2877 " fill="none" style="stroke: #A80036; stroke-width: 1.0;"/><polygon fill="#A80036" points="223.488,269.2781,233.0993,271.4281,228.3902,268.2938,231.5245,263.5847,223.488,269.2781" style="stroke: #A80036; stroke-width: 1.0;"/><text fill="#000000" font-family="sans-serif" font-size="13" lengthAdjust="spacingAndGlyphs" textLength="51" x="385.5" y="164.5669">isEmpty</text><path d="M97.0156,154.239 C115.95,153.841 132,155.762 132,160 C132,163.841 118.818,165.778 102.2539,165.812 " fill="none" style="stroke: #A80036; stroke-width: 1.0;"/><polygon fill="#A80036" points="97.0156,165.761,105.9764,169.848,102.0154,165.8094,106.0539,161.8484,97.0156,165.761" style="stroke: #A80036; stroke-width: 1.0;"/><text fill="#000000" font-family="sans-serif" font-size="13" lengthAdjust="spacingAndGlyphs" textLength="56" x="138" y="164.5669">enqueue</text><path d="M97.2911,150.561 C143.482,145.743 200,148.89 200,160 C200,170.698 147.599,174.012 102.4727,169.943 " fill="none" style="stroke: #A80036; stroke-width: 1.0;"/><polygon fill="#A80036" points="97.2911,169.439,105.8621,174.2906,102.2677,169.9225,106.6357,166.3281,97.2911,169.439" style="stroke: #A80036; stroke-width: 1.0;"/><text fill="#000000" font-family="sans-serif" font-size="13" lengthAdjust="spacingAndGlyphs" textLength="56" x="206" y="164.5669">dequeue</text><path d="M43.1164,185.1723 C39.5451,200.1897 38.2423,219.0351 48.5,232 C67.1261,255.5419 160.816,266.3274 198.131,269.7392 " fill="none" style="stroke: #A80036; stroke-width: 1.0;"/><polygon fill="#A80036" points="203.212,270.1897,194.6003,265.4108,198.2315,269.7483,193.894,273.3795,203.212,270.1897" style="stroke: #A80036; stroke-width: 1.0;"/><text fill="#000000" font-family="sans-serif" font-size="13" lengthAdjust="spacingAndGlyphs" textLength="21" x="49.5" y="228.0669">top</text><path d="M67.1336,185.1401 C78.0188,200.3361 93.7327,219.3911 111.5,232 C139.151,251.623 177.949,262.8625 198.824,267.855 " fill="none" style="stroke: #A80036; stroke-width: 1.0;"/><polygon fill="#A80036" points="203.727,268.991,195.8621,263.0628,198.856,267.8624,194.0564,270.8564,203.727,268.991" style="stroke: #A80036; stroke-width: 1.0;"/><text fill="#000000" font-family="sans-serif" font-size="13" lengthAdjust="spacingAndGlyphs" textLength="57" x="112.5" y="228.0669">compare</text><path d="M97.176,174.301 C121.889,183.0721 151.891,196.4129 174.5,215 C189.043,226.9559 200.558,245.6461 207.201,258.1035 " fill="none" style="stroke: #A80036; stroke-width: 1.0;"/><polygon fill="#A80036" points="209.585,262.7047,208.997,252.8734,207.2852,258.265,201.8936,256.5531,209.585,262.7047" style="stroke: #A80036; stroke-width: 1.0;"/><text fill="#000000" font-family="sans-serif" font-size="13" lengthAdjust="spacingAndGlyphs" textLength="51" x="191.5" y="228.0669">isEmpty</text></g></svg>